<svg xmlns="http://www.w3.org/2000/svg" viewBox="0 0 1200 800" role="img">
  <defs>
    <linearGradient id="bg" x1="0" y1="0" x2="1" y2="1"><stop stop-color="#f7e8ad"/><stop offset="1" stop-color="#e69a3c"/></linearGradient>
    <linearGradient id="cake" x2="0" y2="1"><stop stop-color="#efbd62"/><stop offset="1" stop-color="#bd6e2b"/></linearGradient>
  </defs>
  <rect width="1200" height="800" fill="url(#bg)"/>
  <ellipse cx="600" cy="650" rx="390" ry="92" fill="#fff9e9"/>
  <path d="M330 345h540l-42 278c-126 48-330 48-456 0Z" fill="url(#cake)"/>
  <ellipse cx="600" cy="345" rx="270" ry="88" fill="#f8d879"/>
  <path d="M359 342c50 56 118 51 169 3 50 54 97 53 145 1 50 48 110 53 168-4" fill="none" stroke="#fff8df" stroke-width="34" stroke-linecap="round"/>
  <g>
    <circle cx="493" cy="319" r="62" fill="#f28b2c"/><circle cx="493" cy="319" r="45" fill="#ffd35b"/>
    <path d="M493 274v90M448 319h90M461 287l64 64M525 287l-64 64" stroke="#fff0b0" stroke-width="5"/>
    <circle cx="690" cy="333" r="53" fill="#e8b52c"/><circle cx="690" cy="333" r="38" fill="#fff06c"/>
    <path d="M690 295v76M652 333h76M663 306l54 54M717 306l-54 54" stroke="#fffbd1" stroke-width="4"/>
  </g>
  <path d="M585 260c32-59 92-63 108-7-42 35-78 37-108 7Z" fill="#5b8747"/>
</svg>
